<?xml version="1.0" encoding="utf-8"?>
<?xml-stylesheet type="text/xsl" href="rss1.xsl"?>
<rss version="2.0" xmlns:atom="http://www.w3.org/2005/Atom" xmlns:content="http://purl.org/rss/1.0/modules/content/" xmlns:dc="http://purl.org/dc/elements/1.1/" xmlns:media="http://search.yahoo.com/mrss/">
<channel>
 <title>Getty</title>
 <link>http://www.gettyimg.com/</link>
 <atom:link href="http://www.gettyimg.com/" rel="self" type="application/rss+xml" />

 
                <item>
                <title><![CDATA[【Requests】[REQ VID] - Ivete Sangalo - Live from Maracanã Stadium (2023)]]></title>
                <link><![CDATA[https://sharemania.us/threads/ivete-sangalo-live-from-maracan%C3%A3-stadium-2023.234489/]]></link>
                <description><![CDATA[<article>
<blockquote class="messageText SelectQuoteContainer ugc baseHtml">
Can anybody rip and upload Ivete Sangalo's concert from Maracanã Stadium, aired by Rede Globo, Globoplay and Multishow?
<div class="messageTextEndMarker">&nbsp;</div>
</blockquote>
</article>]]></description>
                <author><![CDATA[Leomacae]]></author>
                </item>

                
                <item>
                <title><![CDATA[【HD Live Performances】UPSCALE - Avril Lavigne - I'm With You (Echo Awards 2003) HD Upscale]]></title>
                <link><![CDATA[https://sharemania.us/threads/avril-lavigne-im-with-you-echo-awards-2003-hd-upscale.234488/]]></link>
                <description><![CDATA[<article>
<blockquote class="messageText SelectQuoteContainer ugc baseHtml">
<img src="https://i.imgur.com/nunbS3U.png" class="bbCodeImage LbImage" alt="[​IMG]" data-url="https://i.imgur.com/nunbS3U.png" style=""> <img src="https://i.imgur.com/P2ndaJP.png" class="bbCodeImage LbImage" alt="[​IMG]" data-url="https://i.imgur.com/P2ndaJP.png" style=""> <img src="https://i.imgur.com/jjqE3Ud.png" class="bbCodeImage LbImage" alt="[​IMG]" data-url="https://i.imgur.com/jjqE3Ud.png" style=""> <img src="https://i.imgur.com/WuCIH4G.png" class="bbCodeImage LbImage" alt="[​IMG]" data-url="https://i.imgur.com/WuCIH4G.png" style=""><br>
<br>
<div class="ToggleTriggerAnchor bbCodeSpoilerContainer">
<button type="button" class="button bbCodeSpoilerButton ToggleTrigger Tooltip JsOnly" data-target="> .SpoilerTarget"><span>Spoiler: <span class="SpoilerTitle">MediaInfo</span></span></button>
<div class="SpoilerTarget bbCodeSpoilerText">General<br>
File size : 719 MiB<br>
Duration : 3 min 49 s<br>
Overall bit rate : 26.3 Mb/s<br>
Frame rate : 25.000 FPS<br>
Writing application : Lavf60.14.101<br>
Writing library : Lavf60.14.101<br>
ErrorDetectionType : Per level 1<br>
<br>
Video<br>
ID : 1<br>
Format : HEVC<br>
Format/Info : High Efficiency Video Coding<br>
Format profile : Main<br>
Format level : 6.2<br>
Format tier : High<br>
Codec ID : V_MPEGH/ISO/HEVC<br>
Duration : 3 min 49 s<br>
Bit rate : 23.5 Mb/s<br>
Width : 1 318 pixels<br>
Height : 1 080 pixels<br>
Display aspect ratio : 4:3<br>
Frame rate mode : Constant<br>
Frame rate : 25.000 FPS<br>
Color space : YUV<br>
Chroma subsampling : 4:2:0<br>
Bit depth : 8 bits<br>
Bits/(Pixel*Frame) : 0.659<br>
Stream size : 642 MiB (89%)<br>
Writing library : Lavc60.27.101 hevc_amf<br>
Default : No<br>
Forced : No<br>
Color range : Limited<br>
Transfer characteristics : BT.709<br>
Matrix coefficients : BT.709<br>
<br>
Audio<br>
ID : 2<br>
Format : PCM<br>
Format settings : Little<br>
Codec ID : A_PCM/INT/LIT<br>
Duration : 3 min 49 s<br>
Bit rate mode : Constant<br>
Bit rate : 2 304 kb/s<br>
Channel(s) : 2 channels<br>
Sampling rate : 48.0 kHz<br>
Bit depth : 24 bits<br>
Delay relative to video : -80 ms<br>
Stream size : 63.1 MiB (9%)<br>
Writing lib<br>
rary : Lavc60.27.101 hevc_amf<br>
Default : No<br>
Forced : No</div>
</div><br>
<div class="bbCodeBlock bbCodeVfcHH HiddenContent">
<div class="attribution type">Hidden Content:</div>
<blockquote>You must reply before you can see the hidden data contained here.</blockquote>
</div>
<div class="messageTextEndMarker">&nbsp;</div>
</blockquote>
</article>]]></description>
                <author><![CDATA[Avril1255]]></author>
                </item>

                
                <item>
                <title><![CDATA[【Requests】[REQ AUD] - Padi, Yovie - Discography (Flac) in Qobuz &amp; Tidal]]></title>
                <link><![CDATA[https://sharemania.us/threads/padi-yovie-discography-flac-in-qobuz-tidal.234490/]]></link>
                <description><![CDATA[<article>
<blockquote class="messageText SelectQuoteContainer ugc baseHtml">
<b>Hi You All, some Album &amp; Single from Indonesia band, i hope you'll can download for me.<br>
Thank You<br>
</b><br>
Album<br>
Padi - The Singles<br>
<a href="https://tidal.com/browse/album/10813261" target="_blank" class="externalLink" rel="nofollow">https://tidal.com/browse/album/10813261</a><br>
<br>
Sunshine Becomes You<br>
<a href="https://tidal.com/browse/album/66756534" target="_blank" class="externalLink" rel="nofollow">https://tidal.com/browse/album/66756534</a><br>
<br>
Still The One<br>
<a href="https://tidal.com/browse/album/27500827" target="_blank" class="externalLink" rel="nofollow">https://tidal.com/browse/album/27500827</a><br>
<br>
Winning Eleven<br>
<a href="https://www.qobuz.com/nz-en/album/winning-11-yovie-nuno/0884977676211" target="_blank" class="externalLink" rel="nofollow">https://www.qobuz.com/nz-en/album/winning-11-yovie-nuno/0884977676211</a><br>
<br>
The Special One<br>
<a href="https://www.qobuz.com/nz-en/album/the-special-one-yovie-nuno/0886972275222" target="_blank" class="externalLink" rel="nofollow">https://www.qobuz.com/nz-en/album/the-special-one-yovie-nuno/0886972275222</a><br>
<br>
<br>
<br>
Single EP - Jass Friend<br>
<a href="https://www.qobuz.com/be-nl/album/jass-friend-kuburan/cp7kgs07z3xla" target="_blank" class="externalLink" rel="nofollow">https://www.qobuz.com/be-nl/album/jass-friend-kuburan/cp7kgs07z3xla</a><br>
<br>
Song no. 5 - Terluka<br>
<a href="https://www.qobuz.com/nz-en/album/tak-hanya-diam-padi/0886972165929" target="_blank" class="externalLink" rel="nofollow">https://www.qobuz.com/nz-en/album/tak-hanya-diam-padi/0886972165929</a><br>
<br>
Single - Demi Hati<br>
<a href="https://www.qobuz.com/nz-en/album/demi-hati-yovie-nuno/y8k61egftbnza" target="_blank" class="externalLink" rel="nofollow">https://www.qobuz.com/nz-en/album/demi-hati-yovie-nuno/y8k61egftbnza</a><br>
<br>
Single - Misal<br>
<a href="https://www.qobuz.com/nz-en/album/misal-yovie-nuno/ykgbguip4ngyc" target="_blank" class="externalLink" rel="nofollow">https://www.qobuz.com/nz-en/album/misal-yovie-nuno/ykgbguip4ngyc</a><br>
<br>
Single - Galau<br>
<a href="https://www.qobuz.com/nz-en/album/galau-yovie-nuno/0886443405554" target="_blank" class="externalLink" rel="nofollow">https://www.qobuz.com/nz-en/album/galau-yovie-nuno/0886443405554</a>
<div class="messageTextEndMarker">&nbsp;</div>
</blockquote>
</article>]]></description>
                <author><![CDATA[Sarewae]]></author>
                </item>

                </channel></rss>